# AST/ASF file generated using VICON BodyLanguage
# -----------------------------------------------
:version 1.10
:name VICON
:units
  mass 1.0
  length 0.45
  angle deg
:documentation
   .ast/.asf automatically generated from VICON data using
   VICON BodyBuilder and BodyLanguage model FoxedUp or BRILLIANT.MOD
:root
   order TX TY TZ RX RY RZ
   axis XYZ
   position 0 0 0  
   orientation 0 0 0 
:bonedata
  begin
     id 1 
     name lhipjoint
     direction 0.560651 -0.75055 0.34978 
     length 2.44936 
     axis 0 0 0  XYZ
  end
  begin
     id 2 
     name lfemur
     direction 0.34202 -0.939693 0  
     length 7.42139  
     axis 0 0 20  XYZ
    dof rx ry rz
    limits (-160.0 20.0)
           (-70.0 70.0)
           (-60.0 70.0)
  end
  begin
     id 3 
     name ltibia
     direction 0.34202 -0.939693 0   
     length 7.75674   
     axis 0 0 20   XYZ
    dof rx
    limits (-10.0 170.0)
  end
  begin
     id 4 
     name lfoot
     direction 0.0925879 -0.254383 0.962661   
     length 2.38688   
     axis -90 7.62852e-016 20   XYZ
    dof rx rz
    limits (-45.0 90.0)
           (-70.0 20.0)
  end
  begin
     id 5 
     name ltoes
     direction 1.53567e-011 -4.21973e-011 1   
     length 1.19228   
     axis -90 7.62852e-016 20   XYZ
    dof rx
    limits (-90.0 20.0)
  end
  begin
     id 6 
     name rhipjoint
     direction -0.540087 -0.762838 0.355506   
     length 2.4099  
     axis 0 0 0  XYZ 
  end
  begin
     id 7 
     name rfemur
     direction -0.34202 -0.939693 0   
     length 7.70794   
     axis 0 0 -20   XYZ
    dof rx ry rz
    limits (-160.0 20.0)
           (-70.0 70.0)
           (-70.0 60.0)
  end
  begin
     id 8 
     name rtibia
     direction -0.34202 -0.939693 0   
     length 7.66106   
     axis 0 0 -20   XYZ
    dof rx
    limits (-10.0 170.0)
 end
 begin
     id 9 
     name rfoot
     direction -0.0830975 -0.228308 0.970036   
     length 2.4989  
     axis -90 -7.62852e-016 -20   XYZ
    dof rx rz
    limits (-45.0 90.0)
           (-20.0 70.0)
  end
  begin
     id 10 
     name rtoes
     direction -1.53517e-011 -4.21842e-011 1   
     length 1.2498   
     axis -90 -7.62852e-016 -20   XYZ
    dof rx
    limits (-90.0 20.0)
  end
  begin
     id 11 
     name lowerback
     direction 0.0266356 0.99402 -0.105896   
     length 2.1545   
     axis 0 0 0   XYZ
    dof rx ry rz
    limits (-20.0 45.0)
           (-30.0 30.0)
           (-30.0 30.0)
  end
  begin
     id 12 
     name upperback
     direction 0.0130547 0.999192 0.0380027   
     length 2.1434   
     axis 0 0 0   XYZ
    dof rx ry rz
    limits (-20.0 45.0)
           (-30.0 30.0)
           (-30.0 30.0)
  end
  begin
     id 13 
     name thorax
     direction 0.000590299 0.996288 0.0860764   
     length 2.19049   
     axis 0 0 0   XYZ
    dof rx ry rz
    limits (-20.0 45.0)
           (-30.0 30.0)
           (-30.0 30.0)
  end
  begin
     id 14 
     name lowerneck
     direction -0.0432125 0.978219 0.203028   
     length 1.62441   
     axis 0 0 0   XYZ
    dof rx ry rz
    limits (-20.0 45.0)
           (-30.0 30.0)
           (-30.0 30.0)
  end
  begin
     id 15 
     name upperneck
     direction -0.0192309 0.991699 -0.127138   
     length 1.66666   
     axis 0 0 0   XYZ
    dof rx ry rz
    limits (-20.0 45.0)
           (-30.0 30.0)
           (-30.0 30.0)
  end
  begin
     id 16
     name head
     direction -0.00434499 0.997882 -0.0649107  
     length 1.67142  
     axis 0 0 0   XYZ
    dof rx ry rz
    limits (-20.0 45.0)
           (-30.0 30.0)
           (-30.0 30.0)
  end
  begin
     id 17 
     name lclavicle
     direction 0.970351 0.240904 -0.0196058  
     length 4.04862  
     axis 0 0 0   XYZ
    dof ry rz
    limits (-20.0 10.0)
           (0.0 20.0)
  end
  begin
     id 18 
     name lhumerus
     direction 1 -4.4896e-011 -1.40911e-018   
     length 5.58345   
     axis 180 -30 -90   XYZ
    dof rx ry rz
    limits (-60.0 90.0)
           (-90.0 90.0)
           (-90.0 90.0)
  end
  begin
     id 19
     name lradius
     direction 1 -4.48968e-011 5.88912e-028   
     length 3.71087   
     axis 180 -30 -90   XYZ
    dof rx
    limits (-10.0 170.0)
  end
  begin
     id 20
     name lwrist
     direction 1 -4.48955e-011 -8.83775e-028   
     length 1.85544   
     axis 5.52448e-016 90 90   XYZ
    dof ry
    limits (-180.0 0.0)
 end
  begin
     id 21 
     name lhand
     direction 1 -4.49035e-011 -1.76755e-027   
     length 0.562322   
     axis 1.12785e-015 90 90   XYZ
    dof rx rz
    limits (-90.0 90.0)
           (-45.0 45.0)
  end
  begin
     id 22 
     name lfingers
     direction 1 -4.48824e-011 -3.5351e-027   
     length 0.453359   
     axis 2.2557e-015 90 90   XYZ
    dof rx
    limits (0.0 90.0)
  end
  begin
     id 23
     name lthumb
     direction 0.707107 -6.34888e-011 0.707107   
     length 0.650935   
     axis -90 45 2.85299e-015   XYZ
    dof rx rz
    limits (-45.0 45.0)
           (-45.0 45.0)
  end
  begin
     id 24 
     name rclavicle
     direction -0.96165 0.268562 -0.0557131   
     length 4.05446  
     axis 0 0 0   XYZ 
    dof ry rz
    limits (-10.0 20.0)
           (-20.0 0.0)
  end
  begin
     id 25 
     name rhumerus
     direction -1 -4.48957e-011 -3.36329e-027  
     length 5.20357   
     axis 180 30 90   XYZ
    dof rx ry rz
    limits (-90.0 60.0)
           (-90.0 90.0)
           (-90.0 90.0)
  end
  begin
     id 26 
     name rradius
     direction -1 -4.48974e-011 4.51441e-027   
     length 3.64937   
     axis 180 30 90   XYZ
    dof rx
    limits (-10.0 170.0)
  end
  begin
     id 27 
     name rwrist
     direction -1 -4.4896e-011 -8.83775e-028   
     length 1.82468   
     axis 5.52448e-016 -90 -90   XYZ
    dof ry
    limits (-180.0 0.0)
  end
  begin
     id 28
     name rhand
     direction -1 -4.48996e-011 -1.76755e-027   
     length 0.617996   
     axis 1.12785e-015 -90 -90   XYZ
    dof rx rz
    limits (-90.0 90.0)
           (-45.0 45.0)
  end
  begin
     id 29
     name rfingers
     direction -1 -4.48957e-011 -3.5351e-027   
     length 0.498244   
     axis 2.2557e-015 -90 -90   XYZ
    dof rx
    limits (0.0 90.0)
  end
  begin
     id 30
     name rthumb
     direction -0.707107 -6.34931e-011 0.707107   
     length 0.715382   
     axis -90 -45 -2.85299e-015   XYZ
    dof rx rz
    limits (-45.0 45.0)
           (-45.0 45.0)
  end
:hierarchy
  begin
    root lhipjoint rhipjoint lowerback
    lhipjoint lfemur
    lfemur ltibia
    ltibia lfoot
    lfoot ltoes
    rhipjoint rfemur
    rfemur rtibia
    rtibia rfoot
    rfoot rtoes
    lowerback upperback
    upperback thorax
    thorax lowerneck lclavicle rclavicle
    lowerneck upperneck
    upperneck head
    lclavicle lhumerus
    lhumerus lradius
    lradius lwrist
    lwrist lhand lthumb
    lhand lfingers
    rclavicle rhumerus
    rhumerus rradius
    rradius rwrist
    rwrist rhand rthumb
    rhand rfingers
  end

#!OML:ASF H:\ManfredETheater\Project 1\Capture day 2\Session 1\Male1.ASF
:FULLY-SPECIFIED
:DEGREES
300
root -13.2578 17.3373 -29.9875 192.611 -16.5508 -177.034
lowerback 15.8766 -0.227772 2.01499
upperback -0.940168 0.177974 1.87411
thorax -9.96703 -0.00217726 0.852477
lowerneck -24.2767 -0.53031 -0.816309
upperneck 9.92538 -0.788527 1.38479
head 6.93387 -0.323399 0.48346
rclavicle -4.67144e-015 -1.27222e-014
rhumerus -37.1888 -0.204099 -87.6721
rradius 73.589
rwrist 1.20747
rhand -33.5841 -4.73137
rfingers 7.12502
rthumb -6.7781 -34.6029
lclavicle -4.67144e-015 -1.27222e-014
lhumerus -27.4911 -13.9537 89.679
lradius 73.5696
lwrist 6.74353
lhand -22.7467 -0.792038
lfingers 7.12502
lthumb 3.68771 29.1558
rfemur -38.5792 -10.6838 20.903
rtibia 63.6651
rfoot -24.434 -5.21063
rtoes -17.4609
lfemur -12.7969 4.24603 -18.7464
ltibia 34.9934
lfoot -30.4018 12.3817
ltoes -3.63635
301
root -13.2605 17.319 -30.0354 192.931 -16.4197 -177.27
lowerback 16.2593 -0.273607 1.84013
upperback -0.867031 0.0827958 1.77473
thorax -10.1051 -0.0420158 0.869591
lowerneck -24.3097 -0.508612 -0.775083
upperneck 9.72272 -0.791706 1.45534
head 6.87209 -0.320976 0.499261
rclavicle -5.76476e-015 -5.36719e-015
rhumerus -37.32 0.0223653 -87.8516
rradius 73.6526
rwrist 1.89761
rhand -33.6212 -4.64903
rfingers 7.12502
rthumb -6.81387 -34.5194
lclavicle -5.76476e-015 -5.36719e-015
lhumerus -26.5358 -14.213 89.6188
lradius 74.1217
lwrist 6.85385
lhand -22.885 -0.850235
lfingers 7.12502
lthumb 3.55418 29.0999
rfemur -40.1538 -11.4701 21.4632
rtibia 65.1831
rfoot -25.0856 -5.58212
rtoes -18.1751
lfemur -12.7685 4.23342 -19.0021
ltibia 34.8229
lfoot -30.6474 12.47
ltoes -3.54046
302
root -13.2621 17.3003 -30.0856 193.245 -16.3333 -177.499
lowerback 16.6766 -0.332718 1.66928
upperback -0.79294 -0.0301809 1.68616
thorax -10.2613 -0.090545 0.901862
lowerneck -24.3519 -0.486508 -0.742253
upperneck 9.50232 -0.792572 1.52541
head 6.80592 -0.318605 0.516419
rclavicle -1.25731e-014 -3.06128e-014
rhumerus -37.4873 0.202707 -87.9709
rradius 73.642
rwrist 2.54972
rhand -33.6758 -4.5982
rfingers 7.12502
rthumb -6.86661 -34.4668
lclavicle -1.25731e-014 -3.06128e-014
lhumerus -25.5396 -14.4297 89.5606
lradius 74.6598
lwrist 6.8983
lhand -22.9943 -0.897749
lfingers 7.12502
lthumb 3.44861 29.0541
rfemur -41.7564 -12.2402 22.0799
rtibia 66.566
rfoot -25.6845 -5.88987
rtoes -18.9815
lfemur -12.7428 4.23258 -19.2325
ltibia 34.6667
lfoot -30.8809 12.5255
ltoes -3.49421
303
root -13.2624 17.2817 -30.1382 193.554 -16.2925 -177.715
lowerback 17.1237 -0.404984 1.50822
upperback -0.715449 -0.159807 1.6113
thorax -10.43 -0.147395 0.949284
lowerneck -24.4099 -0.462698 -0.714281
upperneck 9.26105 -0.790713 1.59366
head 6.73531 -0.316249 0.533953
rclavicle 2.19657e-014 9.93923e-015
rhumerus -37.6805 0.332206 -88.0329
rradius 73.5514
rwrist 3.14602
rhand -33.7428 -4.56865
rfingers 7.12502
rthumb -6.93132 -34.4352
lclavicle 2.19657e-014 9.93923e-015
lhumerus -24.5011 -14.6091 89.5046
lradius 75.1901
lwrist 6.90371
lhand -23.0866 -0.936233
lfingers 7.12502
lthumb 3.35951 29.017
rfemur -43.3794 -12.9648 22.7537
rtibia 67.7893
rfoot -26.2275 -6.11788
rtoes -19.8562
lfemur -12.7265 4.24606 -19.427
ltibia 34.5265
lfoot -31.1004 12.5449
ltoes -3.48571
304
root -13.2619 17.2632 -30.1936 193.862 -16.2932 -177.919
lowerback 17.5926 -0.489593 1.35693
upperback -0.634399 -0.305101 1.54979
thorax -10.6063 -0.211974 1.01158
lowerneck -24.4699 -0.436279 -0.692723
upperneck 8.98528 -0.785131 1.66263
head 6.65365 -0.313544 0.553052
rclavicle 3.18055e-015 2.18663e-015
rhumerus -37.8986 0.414008 -88.0398
rradius 73.3815
rwrist 3.66574
rhand -33.811 -4.61761
rfingers 7.12502
rthumb -6.99712 -34.482
lclavicle 3.18055e-015 2.18663e-015
lhumerus -23.4343 -14.7493 89.4537
lradius 75.722
lwrist 6.89021
lhand -23.1655 -0.996548
lfingers 7.12502
lthumb 3.28329 28.9579
rfemur -45.0194 -13.6351 23.4703
rtibia 68.8375
rfoot -26.7127 -6.24551
rtoes -20.7706
lfemur -12.7206 4.27577 -19.5912
ltibia 34.4035
lfoot -31.3074 12.53
ltoes -3.50456
305
root -13.2605 17.2445 -30.2515 194.172 -16.3291 -178.115
lowerback 18.0857 -0.585214 1.21711
upperback -0.552177 -0.463846 1.4985
thorax -10.7939 -0.283263 1.08431
lowerneck -24.5286 -0.405328 -0.672199
upperneck 8.67206 -0.774907 1.73041
head 6.55947 -0.310201 0.572315
rclavicle 3.28492e-014 -5.56597e-015
rhumerus -38.1376 0.4457 -87.9975
rradius 73.1249
rwrist 4.07293
rhand -33.9631 -4.70586
rfingers 7.12502
rthumb -7.14393 -34.5653
lclavicle 3.28492e-014 -5.56597e-015
lhumerus -22.353 -14.8563 89.4078
lradius 76.2703
lwrist 6.87514
lhand -23.2335 -1.09772
lfingers 7.12502
lthumb 3.21764 28.8577
rfemur -46.6744 -14.2396 24.219
rtibia 69.7042
rfoot -27.1296 -6.25717
rtoes -21.6822
lfemur -12.7312 4.32175 -19.7291
ltibia 34.3048
lfoot -31.5047 12.4868
ltoes -3.54839
306
root -13.2586 17.2256 -30.3123 194.488 -16.3936 -178.306
lowerback 18.5843 -0.689022 1.08487
upperback -0.462312 -0.633756 1.45632
thorax -10.9749 -0.360013 1.16781
lowerneck -24.5952 -0.370289 -0.652413
upperneck 8.31914 -0.760813 1.79346
head 6.45344 -0.307195 0.590401
rclavicle 3.67752e-014 -1.39149e-014
rhumerus -38.3861 0.426215 -87.9081
rradius 72.7853
rwrist 4.33745
rhand -34.1535 -4.86099
rfingers 7.12502
rthumb -7.32775 -34.7141
lclavicle 3.67752e-014 -1.39149e-014
lhumerus -21.2556 -14.9345 89.3662
lradius 76.85
lwrist 6.87052
lhand -23.3052 -1.2412
lfingers 7.12502
lthumb 3.14841 28.7153
rfemur -48.344 -14.7671 24.9829
rtibia 70.3896
rfoot -27.489 -6.15551
rtoes -22.5941
lfemur -12.7653 4.38372 -19.8497
ltibia 34.2375
lfoot -31.6938 12.4258
ltoes -3.62661
307
root -13.2571 17.2051 -30.3752 194.826 -16.4701 -178.504
lowerback 19.0793 -0.79778 0.962528
upperback -0.369854 -0.810203 1.41579
thorax -11.1496 -0.440203 1.25135
lowerneck -24.667 -0.329506 -0.634393
upperneck 7.92667 -0.740945 1.85388
head 6.33526 -0.303602 0.608383
rclavicle -1.47598e-014 -3.97569e-015
rhumerus -38.6422 0.351871 -87.7737
rradius 72.3644
rwrist 4.45024
rhand -34.3658 -5.05129
rfingers 7.12502
rthumb -7.5327 -34.8972
lclavicle -1.47598e-014 -3.97569e-015
lhumerus -20.1545 -14.9881 89.3314
lradius 77.4681
lwrist 6.87012
lhand -23.4022 -1.44677
lfingers 7.12502
lthumb 3.05468 28.5111
rfemur -50.0414 -15.208 25.7392
rtibia 70.9015
rfoot -27.778 -5.95079
rtoes -23.4577
lfemur -12.843 4.44943 -19.9767
ltibia 34.2128
lfoot -31.8805 12.3686
ltoes -3.70769
308
root -13.2558 17.1825 -30.4405 195.189 -16.5542 -178.717
lowerback 19.5649 -0.909858 0.840963
upperback -0.276171 -0.993154 1.37283
thorax -11.3162 -0.523333 1.33554
lowerneck -24.7394 -0.280784 -0.608799
upperneck 7.49331 -0.714549 1.90408
head 6.20377 -0.299617 0.622366
rclavicle -9.98893e-015 1.68967e-014
rhumerus -38.9092 0.216731 -87.5964
rradius 71.8712
rwrist 4.40509
rhand -34.583 -5.26651
rfingers 7.12502
rthumb -7.74229 -35.1048
lclavicle -9.98893e-015 1.68967e-014
lhumerus -19.0642 -15.0313 89.3015
lradius 78.1433
lwrist 6.8732
lhand -23.5272 -1.68459
lfingers 7.12502
lthumb 2.93397 28.275
rfemur -51.7609 -15.5554 26.4669
rtibia 71.2504
rfoot -28.0028 -5.65439
rtoes -24.2133
lfemur -12.9653 4.51932 -20.12
ltibia 34.2366
lfoot -32.0692 12.3202
ltoes -3.80578
309
root -13.2551 17.1573 -30.5081 195.577 -16.6402 -178.953
lowerback 20.0385 -1.02475 0.712061
upperback -0.181951 -1.18375 1.32698
thorax -11.4738 -0.609447 1.42477
lowerneck -24.8011 -0.221385 -0.573086
upperneck 7.01563 -0.678187 1.93819
head 6.05613 -0.294204 0.63044
rclavicle -1.95306e-014 2.98177e-015
rhumerus -39.1882 0.0261077 -87.3783
rradius 71.3116
rwrist 4.17742
rhand -34.8314 -5.43546
rfingers 7.12502
rthumb -7.98208 -35.2647
lclavicle -1.95306e-014 2.98177e-015
lhumerus -17.9936 -15.0582 89.2785
lradius 78.8827
lwrist 6.87886
lhand -23.6897 -1.93747
lfingers 7.12502
lthumb 2.77703 28.0242
rfemur -53.4938 -15.8068 27.1447
rtibia 71.4501
rfoot -28.1734 -5.30131
rtoes -24.845
lfemur -13.1304 4.59142 -20.2897
ltibia 34.314
lfoot -32.2683 12.2911
ltoes -3.93381
310
root -13.2549 17.1289 -30.5789 195.99 -16.7237 -179.217
lowerback 20.4955 -1.13833 0.568547
upperback -0.0901786 -1.37814 1.27722
thorax -11.623 -0.696231 1.52082
lowerneck -24.8392 -0.152565 -0.530171
upperneck 6.49351 -0.632573 1.95616
head 5.89059 -0.287805 0.632972
rclavicle 6.94504e-014 -1.72943e-014
rhumerus -39.4914 -0.22813 -87.1142
rradius 70.6882
rwrist 3.88449
rhand -35.0806 -5.63373
rfingers 7.12502
rthumb -8.22252 -35.4537
lclavicle 6.94504e-014 -1.72943e-014
lhumerus -16.9568 -15.0797 89.2664
lradius 79.6972
lwrist 6.88713
lhand -23.8466 -2.19543
lfingers 7.12502
lthumb 2.62548 27.7682
rfemur -55.2253 -15.9601 27.7541
rtibia 71.5161
rfoot -28.297 -4.91493
rtoes -25.2842
lfemur -13.3274 4.6672 -20.4907
ltibia 34.437
lfoot -32.4804 12.2809
ltoes -4.09348
311
root -13.2547 17.0969 -30.6529 196.429 -16.8117 -179.512
lowerback 20.9292 -1.25178 0.402428
upperback 0.00108267 -1.57957 1.2284
thorax -11.7574 -0.784666 1.63426
lowerneck -24.8633 -0.0726275 -0.478006
upperneck 5.9335 -0.575637 1.95035
head 5.71079 -0.280023 0.627402
rclavicle -1.10574e-014 -6.4605e-016
rhumerus -39.8155 -0.541936 -86.7962
rradius 70.0424
rwrist 3.42897
rhand -35.2691 -5.83466
rfingers 7.12502
rthumb -8.40452 -35.6474
lclavicle -1.10574e-014 -6.4605e-016
lhumerus -15.9485 -15.0921 89.2692
lradius 80.5902
lwrist 6.90047
lhand -24.0074 -2.44671
lfingers 7.12502
lthumb 2.47021 27.5187
rfemur -56.9459 -16.0226 28.2835
rtibia 71.4669
rfoot -28.3835 -4.54512
rtoes -25.5846
lfemur -13.5505 4.74432 -20.7212
ltibia 34.5952
lfoot -32.7078 12.2811
ltoes -4.27741
312
root -13.2547 17.0614 -30.7314 196.894 -16.8969 -179.845
lowerback 21.3362 -1.3622 0.204238
upperback 0.0857433 -1.78648 1.17751
thorax -11.8816 -0.873286 1.76659
lowerneck -24.8473 0.01743 -0.414995
upperneck 5.33358 -0.508466 1.91949
head 5.51246 -0.271202 0.612972
rclavicle 4.79568e-015 -1.14301e-015
rhumerus -40.1856 -0.906192 -86.43
rradius 69.3965
rwrist 2.84238
rhand -35.4004 -6.0619
rfingers 7.12502
rthumb -8.53116 -35.8696
lclavicle 4.79568e-015 -1.14301e-015
lhumerus -14.9898 -15.0988 89.2893
lradius 81.5725
lwrist 6.93421
lhand -24.1638 -2.68414
lfingers 7.12502
lthumb 2.31916 27.283
rfemur -58.638 -15.9959 28.7112
rtibia 71.3239
rfoot -28.423 -4.21415
rtoes -25.7361
lfemur -13.7803 4.83324 -20.9867
ltibia 34.7713
lfoot -32.9528 12.2876
ltoes -4.51309
313
root -13.2545 17.0225 -30.8152 197.377 -16.9808 -180.205
lowerback 21.7062 -1.46827 -0.0217911
upperback 0.168972 -1.99609 1.12936
thorax -11.9836 -0.961215 1.91922
lowerneck -24.8018 0.116377 -0.346185
upperneck 4.70174 -0.43224 1.86867
head 5.30005 -0.261446 0.592028
rclavicle 1.84124e-014 -8.74653e-015
rhumerus -40.6037 -1.31035 -86.0184
rradius 68.7771
rwrist 2.12197
rhand -35.5102 -6.2803
rfingers 7.12502
rthumb -8.63719 -36.0836
lclavicle 1.84124e-014 -8.74653e-015
lhumerus -14.0661 -15.1033 89.3243
lradius 82.6496
lwrist 7.00242
lhand -24.3169 -2.88725
lfingers 7.12502
lthumb 2.17131 27.0814
rfemur -60.2833 -15.8826 29.038
rtibia 71.1128
rfoot -28.4085 -3.94559
rtoes -25.7502
lfemur -14.0009 4.9428 -21.2699
ltibia 34.9501
lfoot -33.2179 12.2894
ltoes -4.79474
